<svg width="48" height="48" viewBox="0 0 48 48" fill="none" xmlns="http://www.w3.org/2000/svg">
<rect width="48" height="48" fill="white"/>
<rect width="48" height="48" fill="white"/>
<path d="M29.5 19.1724C29.5 25.3988 26.3157 32.3059 22.8008 37.7728C21.06 40.4803 19.2786 42.7721 17.8554 44.3734C17.1413 45.1769 16.536 45.7855 16.0859 46.1805C16.0561 46.2066 16.0275 46.2314 16 46.2548C15.9725 46.2314 15.9439 46.2066 15.9141 46.1805C15.464 45.7855 14.8587 45.1769 14.1446 44.3734C12.7214 42.7721 10.94 40.4803 9.19922 37.7728C5.6843 32.3059 2.5 25.3988 2.5 19.1724C2.5 11.6051 8.56027 5.5 16 5.5C23.4397 5.5 29.5 11.6051 29.5 19.1724Z" stroke="#120753" stroke-width="3"/>
<circle cx="16" cy="18" r="4.5" stroke="#FF7424" stroke-width="3"/>
</svg>
