<svg width="48" height="48" viewBox="0 0 48 48" fill="none" xmlns="http://www.w3.org/2000/svg">
<rect width="48" height="48" fill="white"/>
<rect width="48" height="48" fill="white"/>
<path d="M12 33V42.5" stroke="#120753" stroke-width="3" stroke-linecap="round" stroke-linejoin="round"/>
<path d="M36 34.5L36 42.5" stroke="#120753" stroke-width="3" stroke-linecap="round" stroke-linejoin="round"/>
<path d="M20.4056 20.0594C20.3756 20.3108 20.1624 20.5 19.9092 20.5L16.2014 20.5C15.9505 20.5 15.7385 20.314 15.7057 20.0652L14.7847 13.0652C14.7453 12.7658 14.9783 12.5 15.2804 12.5L20.7465 12.5C21.0462 12.5 21.2786 12.7618 21.243 13.0594L20.4056 20.0594Z" stroke="#FF7424" stroke-width="3"/>
<path d="M32.4056 20.0594C32.3756 20.3108 32.1624 20.5 31.9092 20.5L28.2014 20.5C27.9505 20.5 27.7385 20.314 27.7057 20.0652L26.7847 13.0652C26.7453 12.7658 26.9783 12.5 27.2804 12.5L32.7465 12.5C33.0462 12.5 33.2786 12.7618 33.243 13.0594L32.4056 20.0594Z" stroke="#FF7424" stroke-width="3"/>
<path d="M7.18292 20.806C7.26099 20.6206 7.44257 20.5 7.64374 20.5H39.7748C39.9696 20.5 40.1467 20.6131 40.2285 20.7899L45.3233 31.7899C45.4768 32.1212 45.2348 32.5 44.8696 32.5H3.01216C2.65457 32.5 2.41258 32.1355 2.55134 31.806L7.18292 20.806Z" stroke="#120753" stroke-width="3"/>
</svg>
