<svg width="48" height="48" viewBox="0 0 48 48" fill="none" xmlns="http://www.w3.org/2000/svg">
<rect width="48" height="48" fill="white"/>
<rect width="48" height="48" fill="white"/>
<path d="M23.0489 6.92705C23.3483 6.00574 24.6517 6.00574 24.9511 6.92705L28.2658 17.1287C28.3996 17.5407 28.7836 17.8197 29.2168 17.8197H39.9434C40.9122 17.8197 41.3149 19.0593 40.5312 19.6287L31.8532 25.9336C31.5027 26.1883 31.3561 26.6396 31.4899 27.0517L34.8046 37.2533C35.104 38.1746 34.0495 38.9407 33.2658 38.3713L24.5878 32.0664C24.2373 31.8117 23.7627 31.8117 23.4122 32.0664L14.7342 38.3713C13.9505 38.9407 12.896 38.1746 13.1954 37.2533L16.5101 27.0517C16.6439 26.6396 16.4973 26.1883 16.1468 25.9336L7.46877 19.6287C6.68505 19.0593 7.08783 17.8197 8.05655 17.8197H18.7832C19.2164 17.8197 19.6004 17.5407 19.7342 17.1287L23.0489 6.92705Z" fill="#EFBC38"/>
</svg>
