<svg width="48" height="48" viewBox="0 0 48 48" fill="none" xmlns="http://www.w3.org/2000/svg">
<rect width="48" height="48" fill="white"/>
<rect width="48" height="48" fill="white"/>
<mask id="path-2-inside-1_18:79" fill="white">
<path fill-rule="evenodd" clip-rule="evenodd" d="M32.2083 11.5C31.6941 9.44303 29.8459 8 27.7256 8H20.2744C18.1541 8 16.3059 9.44303 15.7917 11.5V11.5C15.2774 13.557 13.4292 15 11.3089 15H5C2.23858 15 0 17.2386 0 20V40C0 42.7614 2.23858 45 5 45H43C45.7614 45 48 42.7614 48 40V20C48 17.2386 45.7614 15 43 15H36.691C34.5708 15 32.7226 13.557 32.2083 11.5V11.5Z"/>
</mask>
<path d="M20.2744 11H27.7256V5H20.2744V11ZM5 18H11.3089V12H5V18ZM3 40V20H-3V40H3ZM43 42H5V48H43V42ZM45 20V40H51V20H45ZM36.691 18H43V12H36.691V18ZM36.691 12C35.9474 12 35.2991 11.4939 35.1188 10.7724L29.2979 12.2276C30.146 15.6201 33.1942 18 36.691 18V12ZM51 20C51 15.5817 47.4183 12 43 12V18C44.1046 18 45 18.8954 45 20H51ZM43 48C47.4183 48 51 44.4183 51 40H45C45 41.1046 44.1046 42 43 42V48ZM-3 40C-3 44.4183 0.581724 48 5 48V42C3.89543 42 3 41.1046 3 40H-3ZM5 12C0.581721 12 -3 15.5817 -3 20H3C3 18.8954 3.89543 18 5 18V12ZM12.8812 10.7724C12.7009 11.4939 12.0526 12 11.3089 12V18C14.8058 18 17.854 15.6201 18.7021 12.2276L12.8812 10.7724ZM27.7256 11C28.4693 11 29.1175 11.5061 29.2979 12.2276L35.1188 10.7724C34.2706 7.37992 31.2225 5 27.7256 5V11ZM20.2744 5C16.7775 5 13.7294 7.37992 12.8812 10.7724L18.7021 12.2276C18.8825 11.5061 19.5307 11 20.2744 11V5Z" fill="#120753" mask="url(#path-2-inside-1_18:79)"/>
<circle cx="24" cy="29" r="7.5" stroke="#FF7424" stroke-width="3"/>
<circle cx="38.5" cy="24.5" r="3" stroke="#FF7424" stroke-width="3"/>
</svg>
