<svg width="509" height="509" viewBox="0 0 509 509" fill="none" xmlns="http://www.w3.org/2000/svg">
<circle cx="207" cy="186" r="141" fill="url(#paint0_linear_63:184)"/>
<path d="M266.97 478.419C365.174 478.419 444.784 470.749 444.784 461.286C444.784 451.824 365.174 444.153 266.97 444.153C168.766 444.153 89.1562 451.824 89.1562 461.286C89.1562 470.749 168.766 478.419 266.97 478.419Z" fill="#EBEBEB"/>
<path d="M47.8257 437.872L99.4994 437.618L151.163 437.536L254.5 437.363L357.837 437.536L409.501 437.618L461.164 437.872L409.501 438.117L357.837 438.208L254.5 438.381L151.163 438.208L99.4994 438.117L47.8257 437.872Z" fill="#263238"/>
<path d="M281.772 399.056C281.772 399.056 281.772 440.224 281.772 440.254C281.772 448.124 281.701 455.026 281.314 458.578C281.319 458.599 281.319 458.619 281.314 458.64C281.317 459.484 281.122 460.317 280.744 461.073C280.748 461.089 280.748 461.107 280.744 461.123C278.412 462.722 215.51 464.87 213.291 464.177C211.072 463.485 212.782 457.143 215.154 455.107C217.526 453.071 241.256 441.486 241.256 441.486L241.653 400.339L281.772 399.056Z" fill="#EB9481"/>
<path d="M281.772 431.785C281.772 431.785 281.772 440.214 281.772 440.244C281.772 448.113 281.701 455.015 281.314 458.568C281.319 458.588 281.319 458.609 281.314 458.629C281.223 459.461 281.032 460.278 280.744 461.062C280.748 461.079 280.748 461.097 280.744 461.113C278.412 462.712 215.51 464.86 213.291 464.167C211.072 463.475 212.782 457.133 215.154 455.097C217.526 453.061 241.256 441.476 241.256 441.476L241.144 432.894L281.772 431.785Z" fill="white"/>
<path d="M213.23 464.208C215.459 464.88 278.382 462.722 280.693 461.154C281.599 460.553 281.813 451.371 281.711 440.275V439.919L241.164 440.794V441.486C241.164 441.486 217.495 453.112 215.103 455.148C212.711 457.184 211.011 463.556 213.23 464.208Z" fill="#674CF9"/>
<path d="M213.861 461.744C224.459 461.123 267.245 459.617 277.761 459.8C277.853 459.8 277.853 459.861 277.761 459.871C267.276 460.716 224.479 461.907 213.871 461.907C213.647 461.928 213.637 461.765 213.861 461.744Z" fill="#263238"/>
<path d="M237.794 441.751C241.948 440.835 247.068 441.303 250.357 444.164C250.489 444.276 250.357 444.449 250.194 444.418C246.163 443.264 242.019 442.547 237.835 442.28C237.765 442.286 237.695 442.263 237.642 442.217C237.589 442.171 237.555 442.106 237.55 442.036C237.545 441.966 237.567 441.896 237.613 441.843C237.659 441.789 237.724 441.756 237.794 441.751Z" fill="#263238"/>
<path d="M234.852 443.675C238.996 442.749 244.116 443.217 247.404 446.077C247.537 446.189 247.404 446.373 247.241 446.332C243.209 445.186 239.066 444.473 234.883 444.204C234.813 444.208 234.744 444.184 234.691 444.138C234.639 444.091 234.607 444.025 234.603 443.955C234.599 443.885 234.623 443.816 234.67 443.763C234.716 443.711 234.782 443.679 234.852 443.675Z" fill="#263238"/>
<path d="M231.9 445.589C236.044 444.673 241.174 445.131 244.462 448.001C244.585 448.113 244.462 448.286 244.289 448.256C240.258 447.102 236.115 446.385 231.931 446.118C231.861 446.122 231.792 446.098 231.739 446.051C231.687 446.005 231.655 445.939 231.651 445.869C231.647 445.799 231.671 445.73 231.718 445.677C231.764 445.625 231.83 445.593 231.9 445.589Z" fill="#263238"/>
<path d="M285.386 246.407L285.345 249.135L283.808 369.453L283.798 369.911L282.882 441.975L238.853 441.099L247.353 246.549L247.465 243.954L247.903 221.384H285.091L285.386 246.407Z" fill="#37474F"/>
<path d="M240.696 433.749C247.567 433.688 245.602 433.607 252.474 433.627C255.833 433.627 277.924 433.709 281.08 434.269C281.099 434.269 281.117 434.276 281.13 434.289C281.143 434.303 281.151 434.321 281.151 434.34C281.151 434.359 281.143 434.377 281.13 434.39C281.117 434.404 281.099 434.411 281.08 434.411C277.924 434.89 255.823 434.411 252.464 434.36C245.592 434.208 247.567 434.177 240.696 433.953C240.669 433.953 240.643 433.942 240.624 433.923C240.604 433.904 240.594 433.878 240.594 433.851C240.594 433.824 240.604 433.798 240.624 433.779C240.643 433.76 240.669 433.749 240.696 433.749Z" fill="#263238"/>
<path d="M275.42 409.317C275.501 402.734 275.606 396.148 275.735 389.558C275.993 376.392 276.238 363.226 276.468 350.06C276.957 323.856 277.378 297.653 277.731 271.45C277.955 256.668 277.955 241.928 278.331 227.106H278.392C278.637 240.268 278.484 253.451 278.464 266.614C278.443 279.777 278.382 292.96 278.26 306.133C278.005 332.336 277.639 358.54 277.018 384.743C276.845 392.134 276.662 399.524 276.407 406.905C276.153 414.285 275.99 421.696 275.471 429.067C275.471 429.091 275.461 429.114 275.444 429.131C275.427 429.149 275.403 429.158 275.379 429.158C275.355 429.158 275.331 429.149 275.314 429.131C275.297 429.114 275.287 429.091 275.287 429.067C275.165 422.47 275.328 415.894 275.42 409.317Z" fill="#263238"/>
<path d="M285.376 246.417L283.808 369.453L254.296 221.384H285.081L285.376 246.417Z" fill="#263238"/>
<path d="M349.113 378.452C349.113 378.452 370.359 412.972 370.369 413.003C373.82 420.078 376.721 426.338 377.912 429.718C377.917 429.738 377.917 429.759 377.912 429.779C378.285 430.539 378.47 431.377 378.452 432.222C378.456 432.243 378.456 432.263 378.452 432.284C377.037 434.737 321.291 463.953 319 464.32C316.71 464.686 315.498 458.212 316.751 455.331C318.003 452.45 334.362 431.734 334.362 431.734L313.544 397.02L349.113 378.452Z" fill="#EB9481"/>
<path d="M378.472 432.222C378.477 432.242 378.477 432.263 378.472 432.284C377.057 434.737 321.311 463.953 319.021 464.32C316.73 464.686 315.519 458.212 316.771 455.331C318.023 452.45 334.382 431.734 334.382 431.734L330.646 425.524C339.757 420.668 356.32 412.137 366.602 406.854L370.369 412.962C373.82 420.037 376.721 426.298 377.912 429.677C377.916 429.698 377.916 429.718 377.912 429.739C378.298 430.509 378.49 431.361 378.472 432.222Z" fill="white"/>
<path d="M319.011 464.32C321.301 463.954 377.037 434.737 378.462 432.284C379.012 431.357 375.225 422.979 370.369 413.003L370.216 412.687L334.036 431.133L334.372 431.744C334.372 431.744 318.084 452.46 316.771 455.331C315.458 458.202 316.72 464.697 319.011 464.32Z" fill="#674CF9"/>
<path d="M318.512 461.826C327.786 456.675 365.686 436.753 375.245 432.365C375.326 432.365 375.347 432.365 375.245 432.426C366.164 437.73 328.101 457.347 318.563 461.948C318.39 462.08 318.318 461.938 318.512 461.826Z" fill="#263238"/>
<path d="M331.41 433.434C334.749 430.807 339.554 429.006 343.768 430.156C343.931 430.156 343.87 430.431 343.768 430.451C339.636 431.164 335.591 432.317 331.705 433.892C331.644 433.931 331.57 433.945 331.5 433.929C331.429 433.914 331.367 433.871 331.328 433.811C331.289 433.75 331.276 433.676 331.291 433.605C331.306 433.535 331.349 433.473 331.41 433.434Z" fill="#263238"/>
<path d="M329.577 436.437C332.916 433.811 337.721 432.009 341.946 433.159C342.109 433.21 342.038 433.434 341.946 433.464C337.797 434.174 333.736 435.324 329.832 436.895C329.772 436.918 329.707 436.918 329.647 436.897C329.587 436.875 329.537 436.832 329.506 436.776C329.475 436.721 329.465 436.656 329.478 436.593C329.491 436.531 329.527 436.475 329.577 436.437Z" fill="#263238"/>
<path d="M327.796 439.45C331.135 436.814 335.94 435.012 340.154 436.172C340.317 436.172 340.256 436.447 340.154 436.467C336.025 437.18 331.984 438.334 328.101 439.908C328.041 439.949 327.966 439.964 327.895 439.949C327.823 439.935 327.76 439.893 327.72 439.832C327.679 439.771 327.664 439.697 327.679 439.625C327.693 439.554 327.735 439.491 327.796 439.45Z" fill="#263238"/>
<path d="M251.68 221.354C251.843 222.128 254.449 234.191 257.137 244.544C259.101 252.118 261.117 258.796 262.227 259.458C263.336 260.119 269.913 263.061 272.061 263.957C272.061 263.957 286.425 335.645 293.998 357.878C301.002 378.391 329.944 433.21 329.944 433.21L371.947 411.985C371.947 411.985 339.147 356.341 335.696 346.354C330.351 330.881 308.474 253.716 308.474 253.716C308.474 253.716 312.221 234.028 302.509 221.283L251.68 221.354Z" fill="#37474F"/>
<path d="M330.626 425.056C336.632 421.707 334.861 422.582 340.898 419.294C343.85 417.685 363.294 407.139 366.297 406.131C366.368 406.131 366.419 406.213 366.368 406.253C363.833 408.187 344.226 418.398 341.244 419.945C335.136 423.111 336.856 422.134 330.718 425.239C330.693 425.251 330.665 425.253 330.639 425.245C330.614 425.236 330.592 425.217 330.58 425.193C330.568 425.169 330.566 425.141 330.575 425.115C330.583 425.089 330.602 425.068 330.626 425.056Z" fill="#263238"/>
<path d="M299.607 248.758C298.457 248.463 297.225 248.372 296.054 248.188C295.108 248.036 294.161 247.873 293.224 247.659C291.427 247.338 289.723 246.622 288.236 245.562C286.744 244.191 285.629 242.459 284.999 240.533C284.531 239.434 284.052 238.355 283.564 237.265L282.841 235.687C282.511 235.077 282.215 234.448 281.955 233.804C281.955 233.712 281.772 233.804 281.813 233.804C281.971 234.251 282.104 234.706 282.21 235.168C282.372 235.687 282.525 236.186 282.688 236.746C282.973 237.693 283.258 238.629 283.574 239.566C284.048 241.292 284.732 242.953 285.61 244.513C287.35 247.272 290.445 248.382 293.55 248.779C294.436 248.891 295.332 248.952 296.227 249.003C297.352 249.105 298.483 249.105 299.607 249.003C299.626 248.989 299.642 248.97 299.652 248.949C299.663 248.928 299.668 248.904 299.668 248.881C299.668 248.857 299.663 248.834 299.652 248.812C299.642 248.791 299.626 248.773 299.607 248.758Z" fill="#263238"/>
<path d="M258.887 257.798C263.443 259.451 267.847 261.494 272.05 263.906C272.08 263.926 272.102 263.956 272.112 263.991C272.122 264.025 272.119 264.062 272.104 264.095C272.09 264.128 272.064 264.154 272.032 264.17C272 264.186 271.963 264.19 271.928 264.181C267.489 262.278 262.97 260.455 258.643 258.307C258.597 258.265 258.565 258.208 258.553 258.146C258.541 258.084 258.55 258.019 258.577 257.962C258.604 257.905 258.649 257.859 258.705 257.829C258.761 257.8 258.825 257.789 258.887 257.798Z" fill="#263238"/>
<path d="M257.554 227.421C257.554 227.268 257.829 227.238 257.829 227.421C257.829 232.684 258.134 237.316 258.572 242.243C258.775 244.524 260.608 257.147 264.578 256.231C265.24 256.078 265.596 255.416 265.687 254.419C265.667 253.113 265.489 251.814 265.158 250.55C264.72 247.903 264.364 245.257 264.14 242.589C263.675 237.619 263.73 232.614 264.303 227.655C264.311 227.628 264.328 227.603 264.351 227.586C264.374 227.569 264.402 227.559 264.43 227.559C264.459 227.559 264.487 227.569 264.51 227.586C264.533 227.603 264.55 227.628 264.558 227.655C264.438 234.547 264.839 241.438 265.759 248.27C266.258 251.558 267.907 256.495 264.476 257.004C261.045 257.513 258.714 249.237 258.287 246.977C257.197 240.518 256.951 233.944 257.554 227.421Z" fill="#263238"/>
<path d="M264.476 256.536C264.827 257.388 265.123 258.262 265.362 259.152C265.618 259.839 265.742 260.568 265.728 261.3C265.728 261.443 265.535 261.453 265.463 261.361C265.052 260.716 264.74 260.012 264.537 259.274C264.242 258.46 263.916 257.656 263.641 256.841C263.617 256.735 263.632 256.623 263.684 256.527C263.736 256.432 263.821 256.358 263.924 256.32C264.026 256.283 264.139 256.284 264.241 256.324C264.342 256.364 264.426 256.439 264.476 256.536Z" fill="#263238"/>
<path d="M360.667 405.062C354.691 393.803 348.533 382.666 342.343 371.468C339.289 365.981 336.113 360.545 333.181 354.977C330.439 349.463 328.214 343.707 326.534 337.783C322.842 325.757 319.34 313.68 316.028 301.552C312.716 289.424 309.611 277.235 306.713 264.985C305.98 261.931 305.186 258.877 304.596 255.823C304.071 252.703 304.071 249.517 304.596 246.397C305.047 243.487 305.071 240.528 304.667 237.611C304.208 234.706 303.527 231.841 302.631 229.04C302.173 227.554 301.613 226.098 301.155 224.632C301.155 224.469 300.849 224.54 300.9 224.703C302.712 230.628 304.565 236.624 304.178 242.895C303.985 245.949 303.16 248.881 303.242 251.914C303.436 254.929 303.948 257.915 304.769 260.822C307.619 273.133 310.673 285.39 313.931 297.592C317.188 309.794 320.653 321.946 324.324 334.047C326.106 339.92 327.775 345.896 330.3 351.515C332.825 357.135 336.042 362.449 339.065 367.803C345.305 378.91 351.597 389.975 358.03 400.96C358.845 402.358 359.663 403.749 360.484 405.133C360.586 405.235 360.718 405.164 360.667 405.062Z" fill="#263238"/>
<path d="M265.016 164.835C263.672 172.979 254.439 209.932 240.278 219.135C227.044 227.737 192.432 235.168 184.624 232.806C181.224 231.788 176.796 206.552 179.86 204.302C182.924 202.053 223.634 197.594 226.322 196.678C229.009 195.761 244.747 175.585 253.543 164.957C261.514 155.337 266.858 153.616 265.016 164.835Z" fill="#EB9481"/>
<path d="M235.26 185.48L256.281 197.624C256.281 197.624 264.985 177.427 266.075 166.84C267.164 156.253 264.405 153.28 253.859 163.501C247.017 170.259 240.793 177.614 235.26 185.48Z" fill="#37474F"/>
<path d="M245.114 237.265C246.132 238.283 309.655 234.924 309.971 234.517C310.795 233.397 288.593 166.667 273.74 155.978C270.533 153.677 261.392 155.876 259.183 158.095C257.798 159.49 254.775 168.275 252.81 175.544C248.86 190.081 244.208 236.359 245.114 237.265Z" fill="#674CF9"/>
<path d="M283.788 170.118C283.502 169.471 283.317 168.785 283.238 168.082C283.233 168.038 283.233 167.994 283.238 167.95C283.432 168.296 283.635 168.652 283.849 168.968C283.876 169.352 283.856 169.739 283.788 170.118Z" fill="white"/>
<path d="M263.926 215.073C263.831 215.748 263.831 216.434 263.926 217.109C264.01 217.794 264.196 218.463 264.476 219.094C264.571 218.419 264.571 217.733 264.476 217.058C264.393 216.372 264.208 215.703 263.926 215.073Z" fill="white"/>
<path d="M281.681 203.865C281.586 204.54 281.586 205.225 281.681 205.901C281.766 206.586 281.951 207.255 282.23 207.886C282.325 207.21 282.325 206.525 282.23 205.85C282.136 205.167 281.951 204.499 281.681 203.865Z" fill="white"/>
<path d="M282.861 231.229C282.766 231.904 282.766 232.589 282.861 233.265C282.955 233.945 283.14 234.609 283.411 235.239C283.506 234.564 283.506 233.879 283.411 233.203C283.316 232.524 283.131 231.859 282.861 231.229Z" fill="white"/>
<path d="M302.193 219.369C302.098 220.044 302.098 220.729 302.193 221.405C302.287 222.085 302.472 222.749 302.743 223.38C302.915 221.996 302.719 220.591 302.173 219.308L302.193 219.369Z" fill="white"/>
<path d="M259.743 182.039C259.579 183.423 259.779 184.827 260.323 186.111C260.419 185.435 260.419 184.75 260.323 184.075C260.234 183.37 260.039 182.684 259.743 182.039Z" fill="white"/>
<path d="M259.743 160.905C259.579 162.29 259.779 163.693 260.323 164.977C260.418 164.302 260.418 163.616 260.323 162.941C260.234 162.237 260.038 161.55 259.743 160.905Z" fill="white"/>
<path d="M292.166 188.92C292.071 189.596 292.071 190.281 292.166 190.956C292.25 191.638 292.435 192.304 292.716 192.931C292.811 192.256 292.811 191.571 292.716 190.895C292.622 190.215 292.437 189.551 292.166 188.92Z" fill="white"/>
<path d="M273.659 176.816C274.334 176.912 275.019 176.912 275.695 176.816C276.38 176.733 277.049 176.547 277.68 176.267C277.004 176.172 276.319 176.172 275.644 176.267C274.96 176.359 274.292 176.544 273.659 176.816Z" fill="white"/>
<path d="M265.382 156.406C266.058 156.501 266.743 156.501 267.418 156.406C268.104 156.322 268.773 156.136 269.403 155.856C268.728 155.761 268.043 155.761 267.367 155.856C266.684 155.948 266.016 156.133 265.382 156.406Z" fill="white"/>
<path d="M254.978 175.004C254.351 175.285 253.685 175.47 253.003 175.554H252.8C252.8 175.381 252.891 175.208 252.942 175.035C253.616 174.927 254.302 174.917 254.978 175.004Z" fill="white"/>
<path d="M257.014 196.474C257.69 196.569 258.375 196.569 259.05 196.474C259.732 196.39 260.398 196.205 261.025 195.924C260.35 195.828 259.664 195.828 258.989 195.924C258.307 196.009 257.642 196.194 257.014 196.474Z" fill="white"/>
<path d="M276.591 194.794C277.266 194.889 277.951 194.889 278.627 194.794C279.312 194.709 279.981 194.524 280.612 194.245C279.937 194.145 279.251 194.145 278.576 194.245C277.891 194.33 277.222 194.515 276.591 194.794Z" fill="white"/>
<path d="M271.633 226.556C272.308 226.651 272.993 226.651 273.669 226.556C274.354 226.471 275.023 226.286 275.654 226.006C274.979 225.911 274.293 225.911 273.618 226.006C272.935 226.101 272.267 226.286 271.633 226.556Z" fill="white"/>
<path d="M291.382 212.396C292.766 212.568 294.17 212.371 295.454 211.825C294.778 211.73 294.093 211.73 293.418 211.825C292.716 211.92 292.031 212.112 291.382 212.396Z" fill="white"/>
<path d="M249.99 234.73C250.666 234.825 251.351 234.825 252.026 234.73C252.708 234.647 253.374 234.461 254.001 234.181C253.326 234.086 252.641 234.086 251.965 234.181C251.285 234.274 250.621 234.459 249.99 234.73Z" fill="white"/>
<path d="M248.504 218.066C249.179 218.161 249.865 218.161 250.54 218.066C251.22 217.971 251.884 217.786 252.515 217.516C251.839 217.421 251.154 217.421 250.479 217.516C249.799 217.609 249.134 217.794 248.504 218.066Z" fill="white"/>
<path d="M274.137 162.605C273.591 163.023 273.108 163.517 272.702 164.071C272.28 164.617 271.937 165.221 271.684 165.863C272.229 165.441 272.713 164.944 273.119 164.387C273.539 163.843 273.881 163.243 274.137 162.605Z" fill="white"/>
<path d="M252.006 184.594C251.75 185.232 251.407 185.831 250.988 186.375C250.829 186.588 250.659 186.792 250.479 186.986C250.529 186.64 250.59 186.294 250.652 185.968C251.035 185.448 251.491 184.985 252.006 184.594Z" fill="white"/>
<path d="M285.946 182.222C285.4 182.644 284.917 183.141 284.511 183.698C284.083 184.237 283.74 184.838 283.493 185.48C284.038 185.061 284.522 184.568 284.928 184.014C285.35 183.467 285.693 182.864 285.946 182.222Z" fill="white"/>
<path d="M268.976 201.208C268.433 201.629 267.95 202.122 267.54 202.674C267.118 203.22 266.776 203.823 266.522 204.465C267.609 203.613 268.452 202.49 268.966 201.208H268.976Z" fill="white"/>
<path d="M258.572 224.296C258.026 224.714 257.543 225.208 257.136 225.762C256.714 226.308 256.371 226.911 256.118 227.554C256.664 227.132 257.147 226.635 257.554 226.077C257.977 225.536 258.32 224.936 258.572 224.296Z" fill="white"/>
<path d="M286.292 218.127C285.746 218.549 285.263 219.046 284.857 219.603C284.437 220.147 284.095 220.747 283.839 221.384C284.384 220.966 284.868 220.473 285.274 219.919C285.696 219.372 286.039 218.769 286.292 218.127Z" fill="white"/>
<path d="M306.194 229.6C305.108 230.455 304.263 231.578 303.74 232.857C304.286 232.439 304.769 231.946 305.176 231.391C305.597 230.845 305.94 230.242 306.194 229.6Z" fill="white"/>
<path d="M249.501 201.024C249.147 200.895 248.806 200.732 248.483 200.536L248.544 200.027C248.899 200.323 249.22 200.658 249.501 201.024Z" fill="white"/>
<path d="M293.612 201.768C293.19 201.222 292.693 200.739 292.135 200.332C291.591 199.912 290.992 199.57 290.354 199.314C290.772 199.86 291.266 200.343 291.82 200.75C292.366 201.172 292.969 201.514 293.612 201.768Z" fill="white"/>
<path d="M295.22 229.345C294.362 228.264 293.24 227.423 291.962 226.902C292.814 227.989 293.938 228.832 295.22 229.345Z" fill="white"/>
<path d="M266.197 174.74C265.776 174.197 265.283 173.714 264.731 173.304C264.187 172.879 263.583 172.536 262.939 172.286C263.357 172.832 263.851 173.315 264.405 173.722C264.951 174.144 265.554 174.486 266.197 174.74Z" fill="white"/>
<path d="M275.674 214.554C275.25 214.01 274.753 213.527 274.198 213.118C273.654 212.699 273.054 212.356 272.417 212.1C272.835 212.646 273.328 213.129 273.882 213.536C274.429 213.958 275.032 214.3 275.674 214.554Z" fill="white"/>
<path d="M247.129 228.775C246.546 228.544 245.996 228.24 245.49 227.869C245.49 227.666 245.49 227.462 245.49 227.258L245.612 227.34C246.185 227.742 246.696 228.226 247.129 228.775Z" fill="white"/>
<path d="M271.949 188.574C271.531 188.029 271.037 187.545 270.483 187.139C269.94 186.712 269.336 186.368 268.691 186.121C269.109 186.666 269.603 187.15 270.157 187.556C270.703 187.978 271.306 188.321 271.949 188.574Z" fill="white"/>
<path d="M257.778 209.443C257.36 208.898 256.866 208.414 256.312 208.008C255.768 207.583 255.164 207.24 254.52 206.99C254.933 207.54 255.427 208.024 255.986 208.425C256.53 208.851 257.134 209.194 257.778 209.443Z" fill="white"/>
<path d="M267.51 234.975C267.092 234.429 266.598 233.946 266.044 233.539C265.5 233.114 264.897 232.771 264.252 232.521C264.677 233.065 265.173 233.548 265.729 233.957C266.273 234.377 266.872 234.719 267.51 234.975Z" fill="white"/>
<path d="M260.486 155.245C257.972 157.108 256.037 166.769 261.799 168.082C267.561 169.395 272.895 160.294 273.689 157.352C274.484 154.41 265.932 151.204 260.486 155.245Z" fill="#37474F"/>
<path d="M262.216 166.759C265.79 167.217 271.205 161.261 273.119 156.701C273.251 156.385 272.468 153.311 271.694 149.575C271.236 147.284 270.778 144.719 270.533 142.347L256.037 147.518C257.198 150.395 258.002 153.404 258.429 156.477C258.463 156.815 258.463 157.156 258.429 157.495C258.429 157.546 258.429 157.597 258.429 157.658C258.317 159.46 258.765 166.311 262.216 166.759Z" fill="#EB9481"/>
<path d="M269.841 142.52C269.688 145.574 268.548 156.375 259.956 157.474C259.45 157.535 258.94 157.562 258.429 157.556C258.425 157.498 258.425 157.44 258.429 157.383C258.463 157.044 258.463 156.703 258.429 156.365C258 153.292 257.197 150.284 256.037 147.406L269.841 142.52Z" fill="#263238"/>
<path d="M269.576 125.214C271.857 130.304 271.032 145.818 267.723 149.646C262.939 155.255 254.123 156.864 249.114 150.878C244.259 145.075 245.694 124.837 249.471 121.223C255.049 115.971 266.217 117.783 269.576 125.214Z" fill="#EB9481"/>
<path d="M257.422 136.412C257.422 136.412 257.493 136.473 257.493 136.514C257.412 137.532 257.493 138.774 258.419 139.161C258.419 139.161 258.419 139.232 258.419 139.222C257.259 138.998 257.167 137.43 257.422 136.412Z" fill="#263238"/>
<path d="M258.409 135.394C260.099 135.394 260.068 138.733 258.5 138.784C256.933 138.835 256.994 135.394 258.409 135.394Z" fill="#263238"/>
<path d="M251.385 136.412C251.385 136.412 251.303 136.463 251.303 136.504C251.303 137.522 251.181 138.764 250.224 139.1V139.161C251.446 138.977 251.578 137.369 251.385 136.412Z" fill="#263238"/>
<path d="M250.428 135.282C248.738 135.139 248.575 138.519 250.143 138.652C251.711 138.784 251.874 135.394 250.428 135.282Z" fill="#263238"/>
<path d="M259.753 133.826C259.295 133.704 258.888 133.511 258.45 133.348C257.967 133.246 257.53 132.989 257.208 132.615C257.131 132.477 257.101 132.318 257.123 132.162C257.145 132.005 257.218 131.861 257.33 131.75C257.587 131.565 257.888 131.452 258.202 131.422C258.517 131.391 258.834 131.445 259.122 131.577C259.742 131.762 260.274 132.167 260.618 132.717C260.686 132.848 260.716 132.997 260.702 133.144C260.689 133.292 260.633 133.432 260.542 133.549C260.451 133.666 260.328 133.754 260.188 133.804C260.048 133.853 259.897 133.861 259.753 133.826Z" fill="#263238"/>
<path d="M249.166 133.562C249.62 133.476 250.069 133.364 250.51 133.226C251.002 133.178 251.465 132.967 251.823 132.625C251.918 132.499 251.97 132.345 251.97 132.187C251.97 132.029 251.918 131.875 251.823 131.75C251.587 131.539 251.3 131.396 250.99 131.333C250.681 131.27 250.36 131.291 250.062 131.393C249.417 131.52 248.844 131.883 248.453 132.411C248.382 132.531 248.345 132.668 248.347 132.808C248.348 132.947 248.388 133.084 248.461 133.202C248.535 133.321 248.639 133.417 248.763 133.48C248.887 133.544 249.027 133.572 249.166 133.562Z" fill="#263238"/>
<path d="M254.215 144.413C254.699 144.947 255.312 145.347 255.996 145.574C256.37 145.696 256.773 145.696 257.147 145.574C257.961 145.299 257.92 144.556 257.717 143.894C257.609 143.538 257.459 143.196 257.269 142.876C256.442 143.703 255.371 144.242 254.215 144.413Z" fill="#263238"/>
<path d="M255.997 145.574C256.37 145.696 256.773 145.696 257.147 145.574C257.961 145.299 257.921 144.556 257.717 143.894C257.284 143.943 256.88 144.134 256.568 144.438C256.256 144.743 256.055 145.142 255.997 145.574Z" fill="#F392B9"/>
<path d="M269.77 138.753C265.85 138.55 265.413 131.383 265.413 131.383C265.413 131.383 258.724 129.968 257.971 124.848C257.971 124.848 251.385 128.634 246.437 126.578C241.49 124.522 242.803 118.872 243.383 117.681C243.963 116.49 246.681 118.882 246.681 118.882C246.681 118.882 247.15 115.675 248.025 115.39C248.901 115.105 249.746 117.09 249.746 117.09C253.804 115.99 258.004 115.506 262.206 115.655C268.11 116.052 270.788 122.16 270.788 122.16C270.788 122.16 273.903 122.974 274.86 125.214C275.817 127.454 272.264 138.876 269.77 138.753Z" fill="#263238"/>
<path d="M258.093 123.87C258.06 124.908 258.219 125.944 258.562 126.924C258.919 127.868 259.523 128.698 260.313 129.327C261.145 129.909 262.077 130.337 263.061 130.589C263.55 130.701 264.079 130.782 264.578 130.874C265.077 130.966 265.596 130.956 266.136 131.027C265.616 131.078 265.118 131.088 264.558 131.118C263.998 131.149 263.54 131.047 262.97 130.966C261.9 130.785 260.886 130.36 260.007 129.724C259.141 129.04 258.508 128.105 258.195 127.046C257.896 126.013 257.861 124.921 258.093 123.87Z" fill="#263238"/>
<path d="M270.788 122.964C270.489 121.297 269.763 119.737 268.68 118.434C267.59 117.168 266.118 116.29 264.486 115.93C264.085 115.822 263.677 115.74 263.265 115.686L262.013 115.604C261.178 115.604 260.343 115.706 259.498 115.767C258.653 115.828 257.829 116.032 257.004 116.245C256.179 116.459 255.365 116.693 254.53 116.897C255.324 116.581 256.129 116.307 256.933 116.001C257.737 115.696 258.602 115.584 259.437 115.38C261.144 115.04 262.901 115.04 264.608 115.38C266.332 115.786 267.869 116.757 268.976 118.139C270.056 119.526 270.689 121.209 270.788 122.964Z" fill="#263238"/>
<path d="M266.879 137.674C266.879 137.674 269.77 132.34 272.162 133.358C274.555 134.376 272.712 141.767 270.198 143.029C269.887 143.213 269.542 143.333 269.184 143.381C268.826 143.429 268.463 143.405 268.114 143.31C267.766 143.215 267.44 143.051 267.156 142.828C266.872 142.605 266.636 142.327 266.461 142.011L266.879 137.674Z" fill="#EB9481"/>
<path d="M271.592 135.475C271.592 135.475 271.592 135.475 271.592 135.547C269.831 136.483 269.047 138.295 268.538 140.138C268.619 139.925 268.747 139.734 268.913 139.579C269.079 139.424 269.279 139.31 269.497 139.245C269.715 139.18 269.944 139.166 270.168 139.204C270.392 139.243 270.604 139.332 270.788 139.466C270.802 139.466 270.815 139.471 270.824 139.481C270.834 139.49 270.839 139.503 270.839 139.517C270.839 139.53 270.834 139.543 270.824 139.553C270.815 139.562 270.802 139.568 270.788 139.568C270.454 139.501 270.107 139.539 269.795 139.678C269.483 139.816 269.222 140.048 269.047 140.341C268.758 140.83 268.522 141.349 268.345 141.889C268.274 142.062 267.968 142.011 268.009 141.818V141.767C267.622 139.466 269.098 135.984 271.592 135.475Z" fill="#263238"/>
<path d="M326.229 164.466L176.854 189.865L193.672 288.78L343.048 263.381L326.229 164.466Z" fill="white"/>
<path d="M193.42 289.112V288.857L176.552 189.704L176.806 189.653L326.452 164.203L343.351 263.611L343.066 263.662L193.42 289.112ZM177.132 190.111L193.868 288.522L342.74 263.214L326.004 164.804L177.132 190.111Z" fill="#DBDBDB"/>
<path d="M276.896 223.736C277.476 227.091 277.048 230.543 275.666 233.655C274.283 236.767 272.008 239.398 269.129 241.216C266.25 243.034 262.896 243.957 259.493 243.868C256.089 243.779 252.788 242.681 250.008 240.715C247.228 238.749 245.094 236.001 243.877 232.822C242.659 229.642 242.413 226.172 243.168 222.852C243.924 219.532 245.648 216.51 248.122 214.171C250.595 211.831 253.708 210.278 257.065 209.708C261.554 208.946 266.162 209.995 269.879 212.624C273.596 215.254 276.119 219.25 276.896 223.736Z" fill="#674CF9"/>
<path d="M254.011 235.005L251.568 220.672L270.716 224.795L254.011 235.005Z" fill="white"/>
<path d="M341.727 255.657L192.352 281.056L193.666 288.783L343.041 263.384L341.727 255.657Z" fill="#EBEBEB"/>
<path d="M327.594 260.844L201.863 282.223L202.252 284.511L327.983 263.132L327.594 260.844Z" fill="#C7C7C7"/>
<path d="M198.837 281.412L193.949 282.243L194.78 287.131L199.668 286.3L198.837 281.412Z" fill="#C7C7C7"/>
<path d="M196.159 282.782L195.235 282.939L195.769 286.08L196.693 285.923L196.159 282.782Z" fill="#A6A6A6"/>
<path d="M197.858 282.465L196.935 282.622L197.469 285.763L198.392 285.606L197.858 282.465Z" fill="#A6A6A6"/>
<path d="M334.258 258.387L329.37 259.218L330.201 264.106L335.089 263.275L334.258 258.387Z" fill="#C7C7C7"/>
<path d="M331.375 260.782L330.421 260.944L330.623 262.128L331.576 261.966L331.375 260.782Z" fill="#A6A6A6"/>
<path d="M332.774 262.542L331.206 262.023L331.002 260.842L332.316 259.834L332.774 262.542Z" fill="#A6A6A6"/>
<path d="M333.099 260.17L333.282 259.906C333.629 260.155 333.863 260.531 333.936 260.951C334.008 261.372 333.912 261.804 333.669 262.155L333.405 261.972C333.505 261.834 333.576 261.677 333.615 261.511C333.653 261.345 333.658 261.173 333.629 261.005C333.602 260.837 333.541 260.677 333.45 260.533C333.359 260.39 333.239 260.266 333.099 260.17Z" fill="#A6A6A6"/>
<path d="M333.15 261.789L332.886 261.626C332.987 261.481 333.027 261.302 332.998 261.127C332.982 261.041 332.95 260.959 332.903 260.886C332.856 260.813 332.794 260.749 332.723 260.7L332.906 260.445C333.106 260.599 333.242 260.822 333.287 261.07C333.332 261.318 333.283 261.574 333.15 261.789Z" fill="#A6A6A6"/>
<path d="M340.077 257.405L335.189 258.236L336.02 263.123L340.908 262.292L340.077 257.405Z" fill="#C7C7C7"/>
<path d="M338.124 258.537L336.107 258.88L336.45 260.898L338.467 260.555L338.124 258.537Z" fill="#A6A6A6"/>
<path d="M341.727 259.975L339.702 260.322L340.05 262.348L342.075 262L341.727 259.975Z" fill="white"/>
<path d="M225.619 279.37C225.68 279.768 225.838 280.145 226.077 280.469L202.256 284.541L201.869 282.241L225.69 278.169C225.573 278.558 225.548 278.969 225.619 279.37Z" fill="#A6A6A6"/>
<path d="M230.842 278.484C230.914 278.88 230.893 279.288 230.781 279.675C230.639 280.152 230.366 280.579 229.994 280.908C229.621 281.238 229.164 281.456 228.673 281.538C228.184 281.624 227.68 281.569 227.221 281.38C226.761 281.19 226.365 280.875 226.077 280.469C225.838 280.145 225.681 279.768 225.619 279.37C225.504 278.679 225.666 277.971 226.07 277.399C226.474 276.827 227.088 276.438 227.777 276.316C228.121 276.256 228.472 276.265 228.812 276.342C229.151 276.418 229.472 276.562 229.756 276.763C230.04 276.965 230.282 277.221 230.466 277.516C230.651 277.812 230.775 278.14 230.831 278.484H230.842Z" fill="#A6A6A6"/>
<path d="M285.04 161.221C292.166 165.394 323.357 184.787 327.114 201.248C330.626 216.661 317.076 240.126 313.534 247.486C311.996 250.703 290.059 241.714 288.99 238.059C287.921 234.405 301.145 209.453 301.206 206.613C301.267 203.773 285.987 182.802 277.914 171.635C270.238 161.078 271.694 153.423 285.04 161.221Z" fill="#EB9481"/>
<path d="M281.731 258.857C279.594 262.766 273.587 266.146 275.868 268.518C277.904 270.625 281.884 267.877 281.884 267.877C281.884 267.877 278.423 272.417 281.294 274.056C284.164 275.695 287.87 271.806 287.87 271.806C287.87 271.806 284.816 275.45 287.799 276.896C290.781 278.342 294.538 275.593 294.538 275.593C294.538 275.593 294.385 277.232 296.94 277.303C300.595 277.395 305.634 271.317 307.517 267.52C309.401 263.723 313.483 248.402 314.063 246.051L289.763 233.763C289.763 233.763 283.299 238.976 280.347 242.019C277.395 245.063 270.442 257.798 273.486 259.743C276.529 261.687 281.283 252.617 282.933 250.632C284.582 248.646 285.315 248.718 285.264 250.184C285.233 251.13 282.668 257.126 281.731 258.857Z" fill="#EB9481"/>
<path d="M281.986 267.663C287.219 263.438 288.786 260.689 290.934 254.429C290.934 254.307 291.158 254.337 291.128 254.429C289.591 260.761 288.125 264.497 282.169 267.897C281.905 268.09 281.752 267.856 281.986 267.663Z" fill="#263238"/>
<path d="M287.605 271.928C292.695 267.072 294.385 264.1 297.113 257.676C297.113 257.595 297.307 257.676 297.276 257.737C295.128 264.242 293.581 267.917 287.89 272.122C287.636 272.335 287.371 272.152 287.605 271.928Z" fill="#263238"/>
<path d="M294.548 275.491C299.109 270.401 301.134 267.256 302.987 260.7C302.995 260.667 303.016 260.639 303.045 260.622C303.073 260.605 303.108 260.6 303.14 260.608C303.172 260.616 303.2 260.637 303.217 260.665C303.235 260.694 303.24 260.728 303.232 260.761C302 267.622 299.495 271.602 294.721 275.613C294.395 275.878 294.263 275.807 294.548 275.491Z" fill="#263238"/>
<path d="M292.736 194.438L310.042 177.448C310.042 177.448 292.929 163.633 283.024 159.734C273.119 155.835 269.515 157.698 276.519 170.627C281.208 179.029 286.635 186.997 292.736 194.438Z" fill="#37474F"/>
<path d="M176.266 198.378C174.658 203.111 169.955 209.321 169.945 213.037C169.91 213.954 170.171 214.858 170.69 215.615C171.209 216.372 171.958 216.942 172.826 217.241C172.826 217.241 169.385 219.491 169.934 222.871C170.209 224.601 173.233 225.68 173.233 225.68C173.233 225.68 170.555 227.604 171.197 230.577C171.736 232.949 174.689 233.631 174.689 233.631C174.689 233.631 172.978 236.685 174.292 238.914C176.969 243.455 197.706 241.012 199.966 233.01C200.984 229.284 196.016 230.149 196.016 230.149C196.016 230.149 202.938 227.157 202.541 222.881C202.144 218.605 195.69 220.122 195.69 220.122C195.69 220.122 202.378 217.16 201.513 212.762C200.627 208.191 194.387 210.818 194.387 210.818C194.387 210.818 198.622 207.153 197.197 203.936C194.845 198.632 184.288 207.326 179.605 206.786L178.313 198.51L176.266 198.378Z" fill="#EB9481"/>
<path d="M172.592 205.931C173.406 201.238 165.822 195.975 165.964 191.384C166.148 185.174 176.602 189.959 178.364 198.51L179.677 206.797L172.592 205.931Z" fill="#EB9481"/>
<path d="M175.167 233.855C175.096 233.855 175.086 233.957 175.167 233.957C182.445 234.877 189.831 233.559 196.342 230.18C196.545 230.068 196.443 229.681 196.199 229.763C189.424 232.139 182.339 233.517 175.167 233.855Z" fill="#263238"/>
<path d="M173.141 225.731C173.125 225.737 173.112 225.747 173.102 225.761C173.093 225.775 173.088 225.791 173.088 225.808C173.088 225.824 173.093 225.84 173.102 225.854C173.112 225.868 173.125 225.878 173.141 225.884C180.359 226.729 189.286 225.12 195.975 220.316C196.209 220.153 196.25 219.776 195.975 219.949C191.292 222.799 179.87 225.518 173.141 225.731Z" fill="#263238"/>
<path d="M194.835 210.36C188.238 214.717 180.908 216.518 173.121 217.282C173.019 217.282 173.039 217.435 173.121 217.455C177.03 218.117 181.947 217.109 185.713 215.999C189.22 215.031 192.413 213.164 194.977 210.583C195.089 210.482 194.977 210.258 194.835 210.36Z" fill="#263238"/>
<defs>
<linearGradient id="paint0_linear_63:184" x1="207" y1="45" x2="207" y2="327" gradientUnits="userSpaceOnUse">
<stop stop-color="#E5E5E5" stop-opacity="0.53"/>
<stop offset="1" stop-color="#E5E5E5" stop-opacity="0"/>
</linearGradient>
</defs>
</svg>
